<?xml version="1.0" encoding="UTF-8" standalone="no" ?>
<!DOCTYPE svg PUBLIC "-//W3C//DTD SVG 1.1//EN" "http://www.w3.org/Graphics/SVG/1.1/DTD/svg11.dtd">
<svg xmlns="http://www.w3.org/2000/svg" xmlns:xlink="http://www.w3.org/1999/xlink" version="1.1" width="1080" height="1080" viewBox="2.42 -2.26 1080 1080" xml:space="preserve">
<desc>Created with Fabric.js 5.2.4</desc>
<defs>
</defs>
<rect x="0" y="0" width="100%" height="100%" fill="transparent"></rect>
<g transform="matrix(1 0 0 1 540 540)" id="3aee75dc-5c72-4a9c-bfae-02f8c73f63e0"  >
<rect style="stroke: none; stroke-width: 1; stroke-dasharray: none; stroke-linecap: butt; stroke-dashoffset: 0; stroke-linejoin: miter; stroke-miterlimit: 4; fill: rgb(255,255,255); fill-rule: nonzero; opacity: 1; visibility: hidden;" vector-effect="non-scaling-stroke"  x="-540" y="-540" rx="0" ry="0" width="1080" height="1080" />
</g>
<g transform="matrix(1 0 0 1 540 540)" id="0fdbe10d-726e-4102-8c4e-551d3dd0c710"  >
</g>
<g transform="matrix(1 0 0 1 540 540)"  >
<g style="" vector-effect="non-scaling-stroke"   >
		<g transform="matrix(1 0 0 1 0 0)"  >
<path style="stroke: none; stroke-width: 1; stroke-dasharray: none; stroke-linecap: butt; stroke-dashoffset: 0; stroke-linejoin: miter; stroke-miterlimit: 4; fill: rgb(253,252,253); fill-rule: nonzero; opacity: 1;" vector-effect="non-scaling-stroke"  transform=" translate(-38, -38)" d="M 0.009 0 L 75.991 0 C 75.996 0 76 0.004 76 0.009 L 76 75.99 C 76 75.996 75.996 76 75.991 76 L 0.009 76 C 0.004 76 0 75.996 0 75.99 L 0 0.009 C 0 0.004 0.004 0 0.009 0 z" stroke-linecap="round" />
</g>
		<g transform="matrix(1 0 0 1 0 0)"  >
<path style="stroke: none; stroke-width: 1; stroke-dasharray: none; stroke-linecap: butt; stroke-dashoffset: 0; stroke-linejoin: miter; stroke-miterlimit: 4; fill: rgb(117,117,117); fill-rule: nonzero; opacity: 1;" vector-effect="non-scaling-stroke"  transform=" translate(-38, -38)" d="M 75.99 0 C 75.995 0 76 0.005 76 0.01 L 76 75.991 C 76 75.996 75.995 76 75.99 76 L 0.009 76 C 0.004 76 0 75.996 0 75.991 L 75.99 0 z" stroke-linecap="round" />
</g>
		<g transform="matrix(1 0 0 1 0 0)" id="rect1311_65_"  >
<polygon style="stroke: none; stroke-width: 1; stroke-dasharray: none; stroke-linecap: butt; stroke-dashoffset: 0; stroke-linejoin: miter; stroke-miterlimit: 4; fill: rgb(185,185,185); fill-rule: nonzero; opacity: 1;" vector-effect="non-scaling-stroke"  points="-29.49,-29.5 29.49,-29.5 29.5,-29.49 29.5,29.49 29.49,29.5 -29.49,29.5 -29.5,29.49 -29.5,-29.49 " />
</g>
		<g transform="matrix(1 0 0 1 0 -2)"  >
<polygon style="stroke: none; stroke-width: 1; stroke-dasharray: none; stroke-linecap: butt; stroke-dashoffset: 0; stroke-linejoin: miter; stroke-miterlimit: 4; fill: rgb(0,0,0); fill-rule: nonzero; opacity: 1;" vector-effect="non-scaling-stroke"  points="-2,19.5 -2,-19.5 2,-19.5 2,19.5 -2,19.5 " />
</g>
		<g transform="matrix(1 0 0 1 -8.32 -11)"  >
<polygon style="stroke: none; stroke-width: 1; stroke-dasharray: none; stroke-linecap: butt; stroke-dashoffset: 0; stroke-linejoin: miter; stroke-miterlimit: 4; fill: rgb(255,0,0); fill-rule: nonzero; opacity: 1;" vector-effect="non-scaling-stroke"  points="10.31,-13.13 -10.31,0 10.31,13.13 " />
</g>
		<g transform="matrix(1 0 0 1 0 16.38)"  >
<rect style="stroke: none; stroke-width: 1; stroke-dasharray: none; stroke-linecap: butt; stroke-dashoffset: 0; stroke-linejoin: miter; stroke-miterlimit: 4; fill: rgb(0,0,0); fill-rule: nonzero; opacity: 1;" vector-effect="non-scaling-stroke"  x="-9.43" y="-2.75" rx="0" ry="0" width="18.86" height="5.5" />
</g>
		<g transform="matrix(1 0 0 1 -0.01 21.98)"  >
<rect style="stroke: none; stroke-width: 1; stroke-dasharray: none; stroke-linecap: butt; stroke-dashoffset: 0; stroke-linejoin: miter; stroke-miterlimit: 4; fill: rgb(0,0,0); fill-rule: nonzero; opacity: 1;" vector-effect="non-scaling-stroke"  x="-17.775" y="-3.52" rx="0" ry="0" width="35.55" height="7.04" />
</g>
</g>
</g>
<g transform="matrix(-0.36 0 0 -0.36 531.01 529.04)" id="d7c7d9b9-ae6c-4bab-8073-81f5a1344ee6"  >
<polygon style="stroke: rgb(0,0,0); stroke-width: 0; stroke-dasharray: none; stroke-linecap: butt; stroke-dashoffset: 0; stroke-linejoin: miter; stroke-miterlimit: 4; fill: rgb(46,220,0); fill-rule: nonzero; opacity: 1;" vector-effect="non-scaling-stroke"  points="-30.68,-37.41 30.68,0 -30.68,37.41 " />
</g>
</svg>