<?xml version="1.0"?>
<svg width="76" height="76" xmlns="http://www.w3.org/2000/svg" xmlns:svg="http://www.w3.org/2000/svg" enable-background="new 0 0 76 76" version="1.1" xml:space="preserve">
 <g class="layer">
  <title>Layer 1</title>
  <g id="svg_1">
   <g id="svg_2">
    <path d="m0.01,0l75.98,0c0.01,0 0.01,0 0.01,0.01l0,75.98c0,0.01 0,0.01 -0.01,0.01l-75.98,0c-0.01,0 -0.01,0 -0.01,-0.01l0,-75.98c0,-0.01 0,-0.01 0.01,-0.01z" fill="#FDFCFD" id="rect1313_65_"/>
    <path d="m75.99,0c0.01,0 0.01,0.01 0.01,0.01l0,75.98c0,0.01 0,0.01 -0.01,0.01l-75.98,0c-0.01,0 -0.01,0 -0.01,-0.01l75.99,-75.99z" fill="#757575" id="path1341_65_"/>
    <polygon fill="#B9B9B9" id="rect1311_65_" points="8.508,8.5 67.492,8.5 67.5,8.508 67.5,67.491 67.492,67.5 8.508,67.5     8.5,67.491 8.5,8.508   "/>
   </g>
   <g id="svg_3">
    <polygon id="svg_4" points="35.999,55.5 35.999,16.5 40,16.5 40,55.5 35.999,55.5   "/>
    <polygon fill="#FF0000" id="svg_5" points="40,13.875 19.375,27 40,40.125   "/>
    <rect height="5.5" id="svg_6" width="18.86" x="28.57" y="51.63"/>
    <rect height="7.04" id="svg_7" width="35.55" x="20.22" y="56.46"/>
   </g>
  </g>
  <path d="m17.46,36.81l12.37,-19.63l12.37,19.63z" fill="#0000ff" id="svg_10" stroke="#0000bf" transform="rotate(-90 29.8298 26.9915)"/>
 </g>
</svg>